PathFileType	4	(X/Y/Z)	c:/Users/goper/Files/vsCode/490R/osim_files/C05/C05_SSWS_02.trc
DataRate	CameraRate	NumFrames	NumMarkers	Units                	OrigDataRate	OrigDataStartFrame	OrigNumFrames
250.00	250.00	7	36	mm	250.0	1177	3138
                Frame#	Time	LPSIS			LASIS			LTH1			LTH2			LTH3			LTH4			LLFE			LMFE			LSH1			LSH2			LSH3			LSH4			LLMAL			LMMAL			LCAL			LMTP5			LTOE			LMTP1			RPSIS			RASIS			RTH1			RTH2			RTH3			RTH4			RLFE			RMFE			RSH1			RSH2			RSH3			RSH4			RLMAL			RMMAL			RCAL			RMTP1			RTOE			RMTP5		
		X1	Y1	Z1	X2	Y2	Z2	X3	Y3	Z3	X4	Y4	Z4	X5	Y5	Z5	X6	Y6	Z6	X7	Y7	Z7	X8	Y8	Z8	X9	Y9	Z9	X10	Y10	Z10	X11	Y11	Z11	X12	Y12	Z12	X13	Y13	Z13	X14	Y14	Z14	X15	Y15	Z15	X16	Y16	Z16	X17	Y17	Z17	X18	Y18	Z18	X19	Y19	Z19	X20	Y20	Z20	X21	Y21	Z21	X22	Y22	Z22	X23	Y23	Z23	X24	Y24	Z24	X25	Y25	Z25	X26	Y26	Z26	X27	Y27	Z27	X28	Y28	Z28	X29	Y29	Z29	X30	Y30	Z30	X31	Y31	Z31	X32	Y32	Z32	X33	Y33	Z33	X34	Y34	Z34	X35	Y35	Z35	X36	Y36	Z36

1177	4.70400	1888.48413	1012.05682	352.21445	0.00000	0.00000	0.00000	0.00000	0.00000	0.00000	0.00000	0.00000	0.00000	1620.62756	712.06555	437.67368	0.00000	0.00000	0.00000	0.00000	0.00000	0.00000	1603.50232	533.22955	295.61304	1637.56787	351.03250	427.93680	1627.46375	308.94241	422.32660	1571.83923	359.27911	428.70807	0.00000	0.00000	0.00000	1574.82483	93.19272	385.07199	1545.49219	108.58717	302.29135	1626.81873	64.11362	329.27274	1431.11401	40.34581	412.63589	1392.71472	72.56835	351.98318	1403.60425	56.30309	302.21436	1888.63867	1016.21753	242.72728	0.00000	0.00000	0.00000	0.00000	0.00000	0.00000	0.00000	0.00000	0.00000	1869.26672	637.53540	140.16739	1874.38672	579.83972	153.42842	0.00000	0.00000	0.00000	0.00000	0.00000	0.00000	2016.81213	410.80142	144.67511	2046.89368	372.63730	148.37556	0.00000	0.00000	0.00000	0.00000	0.00000	0.00000	0.00000	0.00000	0.00000	0.00000	0.00000	0.00000	1844.48035	479.04660	162.66823	0.00000	0.00000	0.00000	0.00000	0.00000	0.00000	0.00000	0.00000	0.00000
1178	4.70800	1883.15051	1012.61969	352.64850	0.00000	0.00000	0.00000	0.00000	0.00000	0.00000	1439.66858	573.23138	296.86853	0.00000	0.00000	0.00000	0.00000	0.00000	0.00000	0.00000	0.00000	0.00000	1598.13391	534.26978	295.85419	1634.35767	351.97647	428.98254	1624.32581	309.68451	422.91177	1568.16016	359.52884	429.04315	0.00000	0.00000	0.00000	1574.47058	93.37719	384.99835	1545.03796	108.48611	302.25592	1626.62402	64.27529	329.27289	1430.88550	40.18840	412.46545	1392.40613	71.56322	351.94040	0.00000	0.00000	0.00000	1883.28540	1016.38501	243.12372	1692.61035	969.81915	168.83522	1790.79834	637.01056	133.03308	0.00000	0.00000	0.00000	1861.99036	636.45453	140.81766	1866.33923	578.59619	153.85321	0.00000	0.00000	0.00000	0.00000	0.00000	0.00000	2008.32837	411.80768	144.85326	2038.94385	374.04208	148.44809	0.00000	0.00000	0.00000	0.00000	0.00000	0.00000	0.00000	0.00000	0.00000	2180.44653	180.72891	174.11200	0.00000	0.00000	0.00000	0.00000	0.00000	0.00000	2213.50659	127.22065	153.83836	0.00000	0.00000	0.00000
1179	4.71200	1877.88928	1013.20905	353.08563	0.00000	0.00000	0.00000	0.00000	0.00000	0.00000	0.00000	0.00000	0.00000	0.00000	0.00000	0.00000	1646.35803	623.51196	440.06580	1571.57605	543.30042	407.57251	1592.66699	535.16730	296.10724	1630.96045	352.83432	429.52228	1621.17639	310.42151	423.24124	1564.53174	359.70386	429.24988	0.00000	0.00000	0.00000	1571.81262	91.24548	384.39761	1543.71313	108.26051	302.30167	1626.49146	64.46512	329.33347	1430.66064	39.54839	412.58136	1392.13953	70.84883	351.80164	0.00000	0.00000	0.00000	1878.01123	1016.57104	243.50508	1687.38464	970.01215	169.72681	1783.04651	636.26843	133.76318	0.00000	0.00000	0.00000	1854.65027	635.33691	141.44418	1858.16284	577.40057	154.24997	0.00000	0.00000	0.00000	1827.18579	477.61401	163.02971	1999.60681	412.76047	144.95839	2030.66418	375.28067	148.43315	0.00000	0.00000	0.00000	0.00000	0.00000	0.00000	2174.99707	184.58690	173.86472	0.00000	0.00000	0.00000	0.00000	0.00000	0.00000	1434.57959	573.83508	297.54916	0.00000	0.00000	0.00000	0.00000	0.00000	0.00000
1180	4.71600	1872.64221	1013.76721	353.51038	0.00000	0.00000	0.00000	0.00000	0.00000	0.00000	0.00000	0.00000	0.00000	2202.19946	132.75296	152.39395	0.00000	0.00000	0.00000	1567.22302	543.41327	408.04776	1587.32617	536.14417	296.37445	1627.62732	353.56583	429.84976	1618.21509	311.02438	423.39273	1560.96167	359.72348	429.34320	0.00000	0.00000	0.00000	1571.44446	91.32971	384.31616	1543.31372	108.20989	302.27802	1626.39832	64.62557	329.36713	1430.47363	39.16005	412.63455	1391.58850	69.95598	351.88907	1402.79272	54.35349	302.04150	1872.76367	1016.68060	243.90941	0.00000	0.00000	0.00000	1775.48486	635.79559	134.18289	0.00000	0.00000	0.00000	1847.30212	634.24701	142.01070	1850.07092	576.25397	154.62419	0.00000	0.00000	0.00000	1818.34961	476.95419	163.14941	1990.79651	413.85309	145.02826	2022.33557	376.73843	148.49731	0.00000	0.00000	0.00000	0.00000	0.00000	0.00000	0.00000	0.00000	0.00000	1429.72412	574.39624	298.23196	0.00000	0.00000	0.00000	0.00000	0.00000	0.00000	2169.17529	188.50143	173.57626	2146.32715	182.61662	258.06110
1181	4.72000	1867.44702	1014.30811	353.93814	0.00000	0.00000	0.00000	0.00000	0.00000	0.00000	2163.07373	192.60272	173.36943	0.00000	0.00000	0.00000	0.00000	0.00000	0.00000	0.00000	0.00000	0.00000	1581.99768	536.98383	296.66895	1623.42407	353.57965	429.39874	1613.86902	310.58557	422.72595	1557.86182	359.87268	429.37851	0.00000	0.00000	0.00000	1571.13342	91.38399	384.20700	1543.70361	108.32102	302.19736	1626.25403	64.77245	329.39474	1430.16687	38.80923	412.59601	1391.46704	69.32251	351.81619	0.00000	0.00000	0.00000	1867.61584	1016.79590	244.32106	1677.29602	970.60010	171.35370	1767.89966	635.31818	134.60762	0.00000	0.00000	0.00000	1839.89136	633.14032	142.56987	1841.80359	575.08044	154.97603	0.00000	0.00000	0.00000	1809.54358	476.32956	163.21573	1981.80078	414.93677	145.10190	2013.74634	378.09268	148.52032	0.00000	0.00000	0.00000	0.00000	0.00000	0.00000	0.00000	0.00000	0.00000	0.00000	0.00000	0.00000	1580.58081	658.73096	434.45193	1425.12598	574.84412	298.87268	0.00000	0.00000	0.00000	0.00000	0.00000	0.00000
1182	4.72400	1862.25745	1014.81146	354.38873	0.00000	0.00000	0.00000	0.00000	0.00000	0.00000	0.00000	0.00000	0.00000	1631.75220	623.19116	442.33096	0.00000	0.00000	0.00000	1558.95007	543.42279	408.89380	1576.77100	537.79968	297.01306	1620.53101	354.04352	429.15244	1612.81421	311.96182	423.07108	1554.77795	359.75067	429.34830	0.00000	0.00000	0.00000	1570.92188	91.54498	384.06006	1543.30066	108.23722	302.08374	1626.14270	64.87258	329.40906	1429.98608	38.44005	412.63940	1391.17603	68.60207	351.76593	0.00000	0.00000	0.00000	1862.56360	1016.91913	244.74258	1672.17566	970.81329	172.22717	1760.27747	634.88678	135.02483	0.00000	0.00000	0.00000	1832.42053	632.03540	143.11215	1833.60059	574.05756	155.31047	0.00000	0.00000	0.00000	1800.50903	475.72256	163.29619	1972.50684	415.87772	145.10074	2004.98718	379.51511	148.56847	0.00000	0.00000	0.00000	0.00000	0.00000	0.00000	0.00000	0.00000	0.00000	1420.76074	575.13855	299.57062	0.00000	0.00000	0.00000	0.00000	0.00000	0.00000	2156.57935	196.71701	173.16031	2134.34692	189.44815	257.58124
1183	4.72800	1857.08264	1015.35052	354.87424	0.00000	0.00000	0.00000	0.00000	0.00000	0.00000	1617.88367	354.36487	428.75403	0.00000	0.00000	0.00000	0.00000	0.00000	0.00000	0.00000	0.00000	0.00000	1570.95874	537.46063	298.19855	0.00000	0.00000	0.00000	1610.57861	312.29990	422.69806	1552.10242	359.51547	429.28632	0.00000	0.00000	0.00000	1571.18762	92.35295	383.83002	1542.92432	108.16209	301.96628	1626.84326	65.42733	329.55597	1429.78955	38.10672	412.65530	1390.78601	67.74105	351.74979	0.00000	0.00000	0.00000	1857.55139	1017.01880	245.20694	0.00000	0.00000	0.00000	1752.62549	634.56537	135.39360	0.00000	0.00000	0.00000	1824.89954	630.93573	143.62086	1825.14648	572.79156	155.58887	0.00000	0.00000	0.00000	1791.34729	475.18256	163.34821	1963.11035	416.86685	145.15102	1995.99170	380.84692	148.57004	0.00000	0.00000	0.00000	0.00000	0.00000	0.00000	0.00000	0.00000	0.00000	0.00000	0.00000	0.00000	0.00000	0.00000	0.00000	2149.79688	200.99033	172.99814	0.00000	0.00000	0.00000	0.00000	0.00000	0.00000
